<?xml version="1.0" encoding="utf-8"?>
<!-- Generator: Adobe Illustrator 26.4.1, SVG Export Plug-In . SVG Version: 6.00 Build 0)  -->
<svg version="1.1" id="Capa_1" xmlns="http://www.w3.org/2000/svg" xmlns:xlink="http://www.w3.org/1999/xlink" x="0px" y="0px"
	 viewBox="0 0 500 500" style="enable-background:new 0 0 500 500;" xml:space="preserve">
<style type="text/css">
	.st0{fill:#21244D;}
	.st1{fill:#FFFFFF;}
</style>
<path class="st0" d="M387.11,381.2L275.74,77.59c-2.1-5.73-7.55-9.53-13.65-9.53h-18.25c-6.08,0-11.52,3.78-13.63,9.48
	L117.48,381.25c-2.11,5.7-7.55,9.48-13.63,9.48H91.89v8.93h60.61v-8.93h-3.29c-10.07,0-17.09-9.99-13.68-19.46l63.38-176.06
	c4.67-12.97,23.07-12.77,27.46,0.29l59.16,176.06c3.17,9.42-3.84,19.17-13.78,19.17l0,0v8.93h136.37v-8.93h-7.35
	C394.66,390.73,389.21,386.92,387.11,381.2z"/>
</svg>
